<?xml version="1.0" encoding="UTF-8"?><svg id="Layer_1" xmlns="http://www.w3.org/2000/svg" viewBox="0 0 252 252"><defs><style>.cls-1,.cls-2{fill:none;}.cls-2{stroke-width:7px;}.cls-2,.cls-3,.cls-4,.cls-5{stroke:#000;}.cls-2,.cls-4,.cls-5{stroke-linecap:round;stroke-linejoin:round;}.cls-3{stroke-miterlimit:10;}.cls-3,.cls-4{fill:#fff;stroke-width:5px;}.cls-5{stroke-width:2px;}</style></defs><rect class="cls-1" width="252" height="252"/><rect class="cls-3" x="31.89" y="105.99" width="178.98" height="112.69" rx="12" ry="12" transform="translate(36.35 -21.66) rotate(11.98)"/><rect x="36.5" y="129.93" width="178.37" height="21.3" transform="translate(31.93 -23.03) rotate(11.98)"/><circle class="cls-3" cx="132.23" cy="109.76" r="51.91"/><polygon class="cls-4" points="141.32 68.4 147.57 96.27 174.64 105.39 150.07 119.95 149.76 148.51 128.32 129.64 101.06 138.17 112.38 111.95 95.84 88.66 124.28 91.33 141.32 68.4"/><polygon class="cls-5" points="138.36 82.32 142.52 100.83 160.49 106.88 144.17 116.55 143.97 135.51 129.73 122.98 111.63 128.65 119.15 111.24 108.17 95.77 127.05 97.54 138.36 82.32"/><line class="cls-2" x1="151.4" y1="18.22" x2="145.82" y2="44.49"/><line class="cls-2" x1="122.06" y1="26.41" x2="124.51" y2="43.84"/><line class="cls-2" x1="91.65" y1="26.81" x2="104.27" y2="50.52"/><line class="cls-2" x1="74.44" y1="51.94" x2="87.53" y2="63.72"/><line class="cls-2" x1="51.4" y1="71.79" x2="76.31" y2="81.85"/><line class="cls-2" x1="175.37" y1="37.73" x2="166.05" y2="52.66"/><line class="cls-2" x1="203" y1="50.44" x2="181.84" y2="66.98"/><line class="cls-2" x1="208.52" y1="80.4" x2="191.78" y2="85.85"/><line class="cls-2" x1="221.5" y1="107.9" x2="194.66" y2="106.97"/></svg>